<svg width="22" height="19" viewBox="0 0 22 19" fill="none" xmlns="http://www.w3.org/2000/svg">
<path d="M3.75 3.375H20.25L18.1875 11.0938H5.8125M18.1875 13.4688H6.5L3.0625 1H1" stroke="#BC4B15" stroke-width="2" stroke-linecap="round" stroke-linejoin="round"/>
<path d="M16.8125 17.0312C17.5719 17.0312 18.1875 16.4996 18.1875 15.8438C18.1875 15.1879 17.5719 14.6562 16.8125 14.6562C16.0531 14.6562 15.4375 15.1879 15.4375 15.8438C15.4375 16.4996 16.0531 17.0312 16.8125 17.0312Z" stroke="#BC4B15" stroke-width="2" stroke-linecap="round" stroke-linejoin="round"/>
<path d="M7.875 17.0312C8.63439 17.0312 9.25 16.4996 9.25 15.8438C9.25 15.1879 8.63439 14.6562 7.875 14.6562C7.11561 14.6562 6.5 15.1879 6.5 15.8438C6.5 16.4996 7.11561 17.0312 7.875 17.0312Z" stroke="#BC4B15" stroke-width="2" stroke-linecap="round" stroke-linejoin="round"/>
</svg>
